<svg xmlns="http://www.w3.org/2000/svg" version="1.1" xmlns:xlink="http://www.w3.org/1999/xlink" xmlns:svgjs="http://svgjs.dev/svgjs" width="100%" height="100%" viewBox="0 0 1000 600"><rect width="1000" height="600" x="0" y="0" fill="#f9d342"/><g><circle r="166.66666666666666" cx="296.4505411783854" cy="318.672757591548" fill="#292826" transform="matrix(0.96313968488214,0,0,0.9631396848821401,0,-6.926372561918868)"/><path d="M276.7040325073739 245.638722947274L276.7040325073739 357.9820898738983L261.81853638959615 357.9820898738983L203.48640356231047 269.5765019001009L199.68401268171704 264.32660994564515Q200.28893850362962 280.2923307454097 200.28893850362962 292.8229370564562L200.28893850362962 292.8229370564562L200.28893850362962 357.9820898738983L187.99598162262015 357.9820898738983L187.99598162262015 245.638722947274L202.6438283103608 245.638722947274L261.1271925931246 334.0659154147112L265.01600144827705 339.29420287552716Q264.4758891072836 315.07556550538374 264.4758891072836 311.2731746247903L264.4758891072836 311.2731746247903L264.4758891072836 245.638722947274L276.7040325073739 245.638722947274ZM395.11826214676387 384.55561705077287L386.15239728627364 393.6727133667413Q382.5012378611584 390.0431584352657 374.07548534166153 378.830426236243Q365.64973282216465 367.6176940372203 361.45846105605597 358.97589658132614L361.45846105605597 358.97589658132614Q356.7486814425937 359.64563588415797 351.73643891817505 359.64563588415797L351.73643891817505 359.64563588415797Q334.73370242370333 359.64563588415797 322.6135814918117 352.40813051484656Q310.4934605599201 345.14902065189546 304.4658068344339 332.1863244680542Q298.416548615308 319.24523277785266 298.416548615308 301.7671974233067L298.416548615308 301.7671974233067Q298.416548615308 274.80478936091686 312.48107397477577 259.24955394030735Q326.5239948406038 243.6727140260581 351.82285689273397 243.6727140260581L351.82285689273397 243.6727140260581Q376.732838059349 243.6727140260581 390.8189679124565 259.357576408506Q404.90509776556405 275.04243879095395 404.90509776556405 301.8536153978656L404.90509776556405 301.8536153978656Q404.90509776556405 321.3624731545467 396.9330396125016 335.470207501294Q388.96098145943927 349.5563373544015 374.07548534166153 355.6272000671671L374.07548534166153 355.6272000671671Q375.28533698548677 357.7444404438612 377.4241818558205 361.2011594262189Q379.5414222325146 364.65787840857655 385.1369860852061 372.45710061252106Q390.71094544425785 380.2347183228258 395.11826214676387 384.55561705077287L395.11826214676387 384.55561705077287ZM322.35432756813486 335.83748389316946Q332.2923946424132 348.1736497614584 351.73643891817505 348.1736497614584Q371.180483193937 348.1736497614584 381.03213229365633 335.8806928804489Q390.8621768997359 323.5661315057997 390.8621768997359 301.8536153978656L390.8621768997359 301.8536153978656Q390.8621768997359 279.6658004298573 380.9457143190974 267.4376570297671Q371.0292517384588 255.2095136296768 351.82285689273397 255.2095136296768Q332.5948575533695 255.2095136296768 322.50555902361305 267.4376570297671Q312.39465600021686 279.6658004298573 312.39465600021686 301.8536153978656L312.39465600021686 301.8536153978656Q312.39465600021686 323.50131802488056 322.35432756813486 335.83748389316946Z " fill="#f9d342" transform="matrix(0.96313968488214,0,0,0.9631396848821401,0,-6.926372561918868)"/><path d="M641.7849953034751 384.6824978157435L632.9439230101787 393.67269662964964Q629.364886515543 390.09366013501403 621.0351051500517 379.0369938212289Q612.7266275732189 367.9803275074438 608.6149963621198 359.45881204402565L608.6149963621198 359.45881204402565Q603.9707704345568 360.1192294924405 599.0282914657743 360.1192294924405L599.0282914657743 360.1192294924405Q582.2409060028405 360.1192294924405 570.2894805653964 352.9824602918278Q558.3593589166109 345.82438730255654 552.3942980922183 333.04211410742926Q546.450541056484 320.2811447009605 546.450541056484 303.0463796761972L546.450541056484 303.0463796761972Q546.450541056484 276.4592514303324 560.2980036845386 261.1205235961797Q574.1667701012517 245.7604919733684 599.0922028317499 245.7604919733684L599.0922028317499 245.7604919733684Q623.6554711550529 245.7604919733684 637.566845149083 261.22704253947245Q651.4569153544547 276.69359310557644 651.4569153544547 303.1315948308314L651.4569153544547 303.1315948308314Q651.4569153544547 322.36891598949796 643.5958173394514 336.2802899835282Q635.7134155357895 350.1703601888998 621.0351051500517 356.1567248019511L621.0351051500517 356.1567248019511Q622.2494211035888 358.24449609048855 624.3371923921262 361.6531022758558Q626.4249636806637 365.0617084612231 631.942644943227 372.752376166958Q637.4390224171317 380.42174008403435 641.7849953034751 384.6824978157435L641.7849953034751 384.6824978157435ZM570.0338351014939 336.6424543907234Q579.8548816730832 348.8069177147529 599.0282914657743 348.8069177147529Q618.2017012584652 348.8069177147529 627.8949250981034 336.6850619680405Q637.5881489377415 324.5419024326696 637.5881489377415 303.1315948308314L637.5881489377415 303.1315948308314Q637.5881489377415 281.25260387850517 627.8097099434692 269.19465949776844Q618.0525747378554 257.1367151170317 599.0922028317499 257.1367151170317Q580.153134714303 257.1367151170317 570.1829616221037 269.19465949776844Q560.234092318563 281.25260387850517 560.234092318563 303.1315948308314L560.234092318563 303.1315948308314Q560.234092318563 324.47799106669396 570.0338351014939 336.6424543907234ZM667.7117061009249 331.0608617621845L667.7117061009249 331.0608617621845L667.7117061009249 276.3101249097226L680.2809414094667 276.3101249097226L680.2809414094667 331.2099882827943Q680.2809414094667 336.5998468134063 681.814814192882 340.3493136173104Q683.3486869762972 344.0987804212143 686.2460022338595 346.1652479210933Q689.1220137027631 348.2104116323136 692.7649615633744 349.1264745446311Q696.3866056353271 350.02123366829 701.1160467175242 350.02123366829L701.1160467175242 350.02123366829Q710.8518781344795 350.02123366829 716.26304045375 345.7391721479223Q721.695506561679 341.47841441621324 721.695506561679 331.2099882827943L721.695506561679 331.2099882827943L721.695506561679 276.3101249097226L734.2860456588795 276.3101249097226L734.2860456588795 331.0608617621845Q734.2860456588795 337.36678320511396 732.4965274115617 342.37317353987214Q730.6857053755854 347.40086766328886 727.6605673860719 350.72425869402196Q724.6141256078998 354.06895351341365 720.3533678761908 356.24193995658527Q716.0926101444817 358.39362261109835 711.3205614849675 359.3735968893915Q706.5698166141118 360.35357116768455 701.1160467175242 360.35357116768455L701.1160467175242 360.35357116768455Q695.7048843982536 360.35357116768455 690.9115319500809 359.3735968893915Q686.1181795019082 358.39362261109835 681.814814192882 356.1993323792682Q677.5114488838558 353.9837383587794 674.4010957397082 350.6603473280463Q671.2907425955606 347.3156525086547 669.5012243482427 342.3092621738965Q667.7117061009249 337.2815680504798 667.7117061009249 331.0608617621845ZM776.680585089385 350.0851450342656L776.680585089385 350.0851450342656Q785.585568748657 350.0851450342656 792.3601735420744 345.18527364280015Q799.1347783354919 340.2854022513347 801.0947268920781 331.9556208858434L801.0947268920781 331.9556208858434L801.0947268920781 318.1081582577889Q800.7112586962243 318.1081582577889 796.557019907808 318.4916264536427Q792.4027811193915 318.85379086083793 791.1245537998789 318.93900601547216L791.1245537998789 318.93900601547216Q774.8697630534086 320.3663598555947 768.478626455845 324.24364939144994Q762.0661860696229 328.1422427159638 762.0661860696229 336.74897333401617L762.0661860696229 336.74897333401617Q762.0661860696229 343.35314781816527 765.9647793941366 346.71914642621545Q769.8633727186505 350.0851450342656 776.680585089385 350.0851450342656ZM813.6000508346443 358.4788377657325L803.864219417689 358.4788377657325Q802.735118618786 353.6854853175598 801.6912329745174 348.14650026633797L801.6912329745174 348.14650026633797Q794.8740206037828 354.96371263707255 788.8876559907316 357.5840786420736Q782.9012913776803 360.20444464707475 774.805851687433 360.20444464707475L774.805851687433 360.20444464707475Q763.2591982345014 360.20444464707475 756.2715555544984 354.17547245670636Q749.262609085837 348.14650026633797 749.262609085837 336.83418848865034L749.262609085837 336.83418848865034Q749.262609085837 324.24364939144994 758.8067064048654 318.19337341242306Q768.3721075125522 312.1217936447376 786.3312013517061 310.6305284386394L786.3312013517061 310.6305284386394Q788.8024408360974 310.3961867633954 793.787527382197 309.99141477888304Q798.7726139282967 309.56533900571213 801.2438534126879 309.35230111912665L801.2438534126879 309.35230111912665L801.2438534126879 302.0877091865627Q801.2438534126879 293.3957634138761 797.1961335675643 289.1989170481426Q793.1484137224406 285.00207068240917 784.456467949754 285.00207068240917L784.456467949754 285.00207068240917Q772.3346122030417 285.00207068240917 759.9784147810853 290.9884352954605L759.9784147810853 290.9884352954605Q759.5949465852315 290.0936761718016 758.0184662244991 285.79031086277536Q756.4632896524253 281.4869455537492 756.3780744977912 281.33781903313934L756.3780744977912 281.33781903313934Q761.8531481830373 278.2700734663088 769.3733855795039 276.43794764167393Q776.8936229759705 274.58451802838044 784.6908096249981 274.58451802838044L784.6908096249981 274.58451802838044Q800.0508412478094 274.58451802838044 806.8254460412269 281.29521145582225Q813.6000508346443 288.0059048832641 813.6000508346443 304.1115691091245L813.6000508346443 304.1115691091245L813.6000508346443 358.4788377657325ZM837.3324714002639 276.3101249097226L849.9230104974644 276.3101249097226L849.9230104974644 358.4788377657325L837.3324714002639 358.4788377657325L837.3324714002639 276.3101249097226ZM837.3324714002639 246.44221321044188L849.9230104974644 246.44221321044188L849.9230104974644 261.26965011678953L837.3324714002639 261.26965011678953L837.3324714002639 246.44221321044188ZM895.5344220154103 359.9701029718307L895.5344220154103 359.9701029718307Q883.5616927893077 359.9701029718307 878.576606243208 353.53635879694997Q873.5915196971083 347.10261462206927 873.5915196971083 331.1460769168187L873.5915196971083 331.1460769168187L873.5915196971083 244.41835328788005L886.032932273699 243.67272068483095L886.032932273699 326.20359794803613Q886.032932273699 331.29520343742854 886.1394512169917 334.36294900425906Q886.2459701602844 337.4306945710896 886.6933497221139 340.39192119462746Q887.1407292839434 343.35314781816527 887.8863618869924 344.8444130242634Q888.6532982787 346.3356782303616 890.059348330164 347.57129797255726Q891.4867021702865 348.8069177147529 893.4679545155313 349.2329934879238Q895.4705106494346 349.6377654724362 898.3891296956552 349.6377654724362L898.3891296956552 349.6377654724362Q900.7751540254125 349.6377654724362 907.826708071391 348.74300634877727L907.826708071391 348.74300634877727L908.4871255198058 358.71317944097655Q900.7751540254125 359.9701029718307 895.5344220154103 359.9701029718307Z " fill="#292826" transform="matrix(0.96313968488214,0,0,0.9631396848821401,0,-6.926372561918868)"/></g></svg>