<?xml version="1.0" encoding="UTF-8" standalone="no"?> <svg id="Layer_1" data-name="Layer 1" xmlns="http://www.w3.org/2000/svg" viewBox="0 0 512 512"><title>old_telephone</title><path d="M512,256c0,141.38-114.62,256-256,256S0,397.39,0,256,114.61,0,256,0,512,114.62,512,256Z" fill="#000000
"/><path d="M28,139.52,139.52,28A257.1,257.1,0,0,0,28,139.52Z" fill="#000000
"/><path d="M179.06,11.77,11.77,179.06a254.14,254.14,0,0,0-6.43,24.69L203.75,5.34A253.94,253.94,0,0,0,179.06,11.77Z" fill="#000000
"/><path d="M231.24,1.2l-230,230Q.27,240.84.07,250.64L250.63.07Q240.84.27,231.24,1.2Z" fill="#000000
"/><path d="M273.44.6.6,273.43q.56,8.39,1.66,16.63L290.05,2.26Q281.83,1.17,273.44.6Z" fill="#000000
"/><path d="M309.94,5.71,5.71,309.95q1.59,7.41,3.6,14.66L324.6,9.31Q317.35,7.3,309.94,5.71Z" fill="#000000
"/><path d="M342.32,14.93,14.94,342.33Q17.32,349,20,355.47L355.46,20Q349,17.31,342.32,14.93Z" fill="#000000
"/><path d="M371.41,27.44l-344,344q3,6,6.39,11.86L383.28,33.83Q377.44,30.48,371.41,27.44Z" fill="##000000
"/><path d="M397.69,42.77,42.77,397.69q3.63,5.46,7.53,10.72L408.42,50.31Q403.16,46.4,397.69,42.77Z" fill="#000000
"/><path d="M421.43,60.64,60.65,421.43q4.18,4.93,8.6,9.65L431.08,69.25Q426.36,64.82,421.43,60.64Z" fill="##000000
"/><path d="M442.75,80.91,80.92,442.75q4.72,4.42,9.65,8.6L451.37,90.58Q447.18,85.64,442.75,80.91Z" fill="#000000
"/><path d="M461.69,103.58,103.58,461.69q5.26,3.91,10.73,7.54L469.23,114.31Q465.59,108.85,461.69,103.58Z" fill="##000000
"/><path d="M478.17,128.72,128.71,478.16q5.84,3.35,11.88,6.4l344-344Q481.51,134.56,478.17,128.72Z" fill="#000000
"/><path d="M492,156.53,156.53,492q6.48,2.73,13.14,5.11L497.06,169.67Q494.68,163,492,156.53Z" fill="#000000
"/><path d="M502.69,187.41,187.4,502.69q7.24,2,14.66,3.6L506.29,202.06Q504.7,194.65,502.69,187.41Z" fill="#000000
"/><path d="M509.74,222,221.94,509.74q8.23,1.09,16.62,1.66L511.4,238.56Q510.83,230.18,509.74,222Z" fill="#000000
"/><path d="M510.81,280.75q.92-9.59,1.13-19.38L261.37,511.93q9.79-.2,19.39-1.13Z" fill="#000000
"/><path d="M332.92,500.23,500.23,332.92a254,254,0,0,0,6.42-24.68L308.23,506.66A254.22,254.22,0,0,0,332.92,500.23Z" fill="##000000
"/><path d="M484,372.49,372.48,484A257.12,257.12,0,0,0,484,372.49Z" fill="#000000
"/><path d="M344.77,271.59l-31.64-36.93a34.29,34.29,0,0,0-11-7.87V200.13a9.29,9.29,0,0,0-9.24-9.28H282a9.28,9.28,0,0,0-9.23,9.28v22.52H239.2V200.13a9.3,9.3,0,0,0-9.25-9.28H219.07a9.28,9.28,0,0,0-9.22,9.28v26.71a34.47,34.47,0,0,0-10.9,7.8l-31.71,37a21,21,0,0,0-1.48,2,15.37,15.37,0,0,0-2.95,9V350.1a15.44,15.44,0,0,0,15.36,15.46H333.83a15.45,15.45,0,0,0,15.36-15.46V282.66a19.28,19.28,0,0,0-4.43-11.08ZM256,315.22c-19.47,0-35.36-14.37-36.6-32.52,0-.41,0-.84,0-1.26s0-.66,0-1c0-19.22,16.4-34.8,36.67-34.8s36.68,15.58,36.68,34.8S276.25,315.22,256,315.22ZM372.12,203.08c0,.07,0,.12,0,.16v17.61c0,6.52-6.2,11.88-13.78,11.88H325c-7.57,0-13.78-5.35-13.78-11.88v-3.27s2.4-25.26,6.05-27.39c-14.42-11.1-38.49-18.73-61.26-18.73-24.36,0-47.51,7.61-61.4,18.63,3.72,2.14,6.21,27.49,6.21,27.49v3.27c0,6.52-6.2,11.88-13.79,11.88H153.62c-7.57,0-13.78-5.35-13.78-11.88V203.24s0-.09,0-.16h0a1.43,1.43,0,0,0,0-.25,10.25,10.25,0,0,1,.53-2.76c5.77-29.75,64-53.62,115.57-53.62,51.75,0,109.84,23.87,115.58,53.62a9.81,9.81,0,0,1,.53,2.76c0,.08,0,.16,0,.25Z" fill="#fff"/></svg>