<?xml version="1.0" encoding="UTF-8" standalone="no"?><!DOCTYPE svg PUBLIC "-//W3C//DTD SVG 1.1//EN" "http://www.w3.org/Graphics/SVG/1.1/DTD/svg11.dtd"><svg width="100%" height="100%" viewBox="0 0 24 24" version="1.1" xmlns="http://www.w3.org/2000/svg" xmlns:xlink="http://www.w3.org/1999/xlink" xml:space="preserve" xmlns:serif="http://www.serif.com/" style="fill-rule:evenodd;clip-rule:evenodd;stroke-linejoin:round;stroke-miterlimit:2;"><g id="Icon"><path d="M22.75,6c-0,-1.26 -0.5,-2.468 -1.391,-3.359c-0.891,-0.891 -2.099,-1.391 -3.359,-1.391l-12,0c-1.26,-0 -2.468,0.5 -3.359,1.391c-0.891,0.891 -1.391,2.099 -1.391,3.359l0,12c-0,1.26 0.5,2.468 1.391,3.359c0.891,0.891 2.099,1.391 3.359,1.391l12,0c1.26,0 2.468,-0.5 3.359,-1.391c0.891,-0.891 1.391,-2.099 1.391,-3.359l-0,-12Zm-8.75,-1.5l-0.029,0.001l-0.023,0.001l-0.025,0.002l-0.028,0.003l-0.028,0.005l-0.027,0.005l-0.027,0.007l-0.027,0.007l-0.026,0.008l-0.026,0.01l-0.026,0.01l-0.025,0.011l-0.024,0.012l-0.024,0.013l-0.024,0.014l-0.023,0.014l-0.022,0.015l-0.022,0.017l-0.021,0.016l-0.02,0.018l-0.02,0.018l-0.02,0.019l-0.018,0.02l-0.018,0.02l-0.017,0.021l-0.016,0.022l-0.016,0.022l-0.015,0.023l-0.014,0.023l-0.013,0.024l-0.012,0.024l-0.011,0.025l-0.011,0.025l-0.01,0.026l-0.008,0.026l-0.008,0.027l-0.007,0.027l-0.006,0.027l-0.004,0.028l-0.004,0.028l-0.002,0.019l-0.002,0.028l-0.001,0.029l-0,0.01l-0,9.5c-0,1.794 -1.456,3.25 -3.25,3.25c-1.794,0 -3.25,-1.456 -3.25,-3.25c-0,-1.794 1.456,-3.25 3.25,-3.25c0.414,-0 0.75,-0.336 0.75,-0.75c-0,-0.414 -0.336,-0.75 -0.75,-0.75c-2.622,-0 -4.75,2.128 -4.75,4.75c-0,2.622 2.128,4.75 4.75,4.75c2.622,0 4.75,-2.128 4.75,-4.75l-0,-6.037c0.85,0.798 1.993,1.287 3.25,1.287c0.414,0 0.75,-0.336 0.75,-0.75c-0,-0.414 -0.336,-0.75 -0.75,-0.75c-1.794,0 -3.25,-1.456 -3.25,-3.25c0,-0.34 -0.226,-0.627 -0.536,-0.719l-0.019,-0.005l-0.019,-0.005l-0.025,-0.006l-0.028,-0.005l-0.028,-0.004l-0.028,-0.003l-0.028,-0.002l-0.029,-0.001l-0.01,0Z"/></g></svg>